<svg id="그룹_169" data-name="그룹 169" xmlns="http://www.w3.org/2000/svg" width="49.091" height="49.711" viewBox="0 0 49.091 49.711">
  <path id="패스_68" data-name="패스 68" d="M907.3,464.3s3.582-4.77,7.128-4.013,6.215.793,8.245,3.537-1.184-7.741-1.184-7.741-3.153-3.017-6.548-2.693-7.546,2.014-7.981,4.433S905.267,463.24,907.3,464.3Z" transform="translate(-890.389 -442.928)" fill="#e0cdb3"/>
  <path id="패스_69" data-name="패스 69" d="M890.55,467.554a29.173,29.173,0,0,0,4.537,17.473c5.49,8.169,21.7,8.5,27.689,6.628s10.809-3.08,13.42-7.431,3.6-14.682,3.341-19.264-5.752,1.053-8.229,6.743-8.474,10.914-20.305,8.905S896.359,463.8,896.359,463.8,891.838,454.5,890.55,467.554Z" transform="translate(-890.487 -442.883)" fill="#e0cdb3"/>
  <g id="그룹_168" data-name="그룹 168" transform="translate(0.059 0)">
    <path id="패스_70" data-name="패스 70" d="M936.413,452.32c-6.7-10.5-26.253-9.981-30.235-8.573-4.278,1.513-9.991,4.14-13.409,12.405s-4.206,21.542,7.362,29.165,27.344,4.158,32.471-.43S943.118,462.82,936.413,452.32Zm-21.307,21.495c-4.776-.567-7.857-3.129-7.7-9.446s7.118-6.471,7.118-6.471c4.962-.154,7.056,2.619,8.75,7.268S919.882,474.383,915.106,473.814Z" transform="translate(-890.546 -442.993)" fill="#ff7b94"/>
  </g>
  <path id="패스_71" data-name="패스 71" d="M915.347,449.153s2.685-.938,3.689-1.273c0,0,.4.135.491.313s-2.142,1.16-3.035,1.517c0,0-.907.447-1.145.223S915.347,449.153,915.347,449.153Z" transform="translate(-890.332 -442.962)" fill="#00a1c1"/>
  <path id="패스_72" data-name="패스 72" d="M933.864,457.8s-.4,0-.4.268a7.285,7.285,0,0,0,.2,2.1s.6.045.691-.178A12.256,12.256,0,0,0,933.864,457.8Z" transform="translate(-890.218 -442.9)" fill="#00a1c1"/>
  <path id="패스_73" data-name="패스 73" d="M927.63,471.967a21.471,21.471,0,0,0-1.83,1.964s-.223.223,0,.4.357.223.669,0,1.161-1.205,1.607-1.563S927.63,471.967,927.63,471.967Z" transform="translate(-890.267 -442.812)" fill="#f5c547"/>
  <path id="패스_74" data-name="패스 74" d="M913.207,478.488a15.625,15.625,0,0,0-1.026,2.768,1.409,1.409,0,0,0,.513.312c.29.09,1.049-3.08,1.049-3.08S913.354,478.166,913.207,478.488Z" transform="translate(-890.351 -442.772)" fill="#fff"/>
  <path id="패스_75" data-name="패스 75" d="M931.485,449.272s.162-.527.032-.658a5.242,5.242,0,0,0-2.083,0,.962.962,0,0,0,.092.628S930.973,448.911,931.485,449.272Z" transform="translate(-890.244 -442.958)" fill="#fff"/>
  <path id="패스_76" data-name="패스 76" d="M898.7,454.224s-1.25.713-1.339,1.741a1.3,1.3,0,0,0,.447.4,4.976,4.976,0,0,0,.4-.625,10.528,10.528,0,0,1,.938-1.206Z" transform="translate(-890.444 -442.923)" fill="#f5c547"/>
  <path id="패스_77" data-name="패스 77" d="M898.034,463.763a9.022,9.022,0,0,0-.4,2.5s-.09.22.2.22.335-.133.425-.737a7.682,7.682,0,0,1,.357-1.986C898.836,463.406,898.2,463.166,898.034,463.763Z" transform="translate(-890.443 -442.865)" fill="#fff"/>
  <path id="패스_78" data-name="패스 78" d="M922.695,482.3a10.983,10.983,0,0,0,2.053-.312s.269.09.269.312-1.3.536-1.612.536a2.757,2.757,0,0,0-.709.134S922.427,482.751,922.695,482.3Z" transform="translate(-890.286 -442.749)" fill="#f5465d"/>
  <path id="패스_79" data-name="패스 79" d="M912.732,443.81a10.917,10.917,0,0,0-1.439,1.5s-.268.092-.4-.086.709-1.218.953-1.4a2.715,2.715,0,0,0,.482-.538S912.674,443.293,912.732,443.81Z" transform="translate(-890.36 -442.991)" fill="#fff"/>
  <path id="패스_80" data-name="패스 80" d="M906.681,449.987a15.253,15.253,0,0,0,0,2.571s.562.357.616,0a23.247,23.247,0,0,1,0-3.08S906.73,449.109,906.681,449.987Z" transform="translate(-890.386 -442.953)" fill="#f5465d"/>
  <path id="패스_81" data-name="패스 81" d="M922.8,456.73h1.3a.665.665,0,0,1,.222.491c0,.312-1.607.09-1.785,0S922.8,456.73,922.8,456.73Z" transform="translate(-890.287 -442.907)" fill="#76ba9d"/>
  <path id="패스_82" data-name="패스 82" d="M893.278,465.295s-.3.791-.465,1.208a.667.667,0,0,1-.538.032c-.292-.113.494-1.531.642-1.666S893.278,465.295,893.278,465.295Z" transform="translate(-890.476 -442.856)" fill="#76ba9d"/>
  <path id="패스_83" data-name="패스 83" d="M900.827,479.371a6.281,6.281,0,0,0,1.484,2.148s.337.169.369-.126-1.159-1.595-1.458-2.384S900.718,479.138,900.827,479.371Z" transform="translate(-890.423 -442.77)" fill="#00a1c1"/>
</svg>
