<svg xmlns="http://www.w3.org/2000/svg" width="47.948" height="47.492" viewBox="0 0 47.948 47.492">
  <g id="그룹_246" data-name="그룹 246" transform="translate(1.5 1.5)">
    <g id="그룹_245" data-name="그룹 245" transform="translate(11.631 5.548)">
      <path id="패스_172" data-name="패스 172" d="M60.534,83.673l-5.224-5.244h-4.65l5.224,5.244Z" transform="translate(-50.659 -61.807)" fill="#ccc" style="mix-blend-mode: multiply;isolation: isolate"/>
      <path id="패스_173" data-name="패스 173" d="M61.691,75.941l-.1,13.713H55.9L61.125,94.9h5.686l.1-13.714h4.628c.262-1.812.5-3.615.765-5.492L67.286,70.65c.03-.054.058-.11.092-.159.016-.023.029-.047.047-.069s.063-.064.095-.1a1.626,1.626,0,0,1,.236-.215c.042-.031.089-.057.134-.085a2.047,2.047,0,0,1,.265-.133c.051-.021.1-.042.157-.059a2.829,2.829,0,0,1,.323-.082c.05-.01.1-.023.15-.03a4.428,4.428,0,0,1,.518-.049c.4-.014.8-.017,1.207-.017.536,0,1.073.007,1.609.007h.389l.037-4.888L67.32,59.529l-.037,4.888h-.389c-.537,0-1.073-.008-1.61-.008-.4,0-.8,0-1.206.018a4.408,4.408,0,0,0-.518.049c-.052.008-.1.021-.15.03a2.844,2.844,0,0,0-.323.082c-.054.018-.1.039-.157.06a1.982,1.982,0,0,0-.264.133,1.527,1.527,0,0,0-.134.085,1.632,1.632,0,0,0-.237.215c-.023.025-.053.042-.075.068a.354.354,0,0,1-.02.029c-.016.022-.03.047-.047.069-.033.048-.069.093-.1.146s-.039.083-.058.125c-.012.026-.025.051-.036.079s-.019.036-.026.055a2.242,2.242,0,0,0-.1.321.247.247,0,0,0,0,.027c-.01.042-.012.093-.02.138a2.951,2.951,0,0,0-.043.3c0,.046-.006.094-.009.141-.041,1.166-.071,3.739-.072,3.874L66.425,75.2c-.036.246-.069.494-.1.741Z" transform="translate(-51.355 -59.297)" fill="#ccc" style="mix-blend-mode: multiply;isolation: isolate"/>
      <g id="그룹_244" data-name="그룹 244" transform="translate(0)">
        <path id="패스_174" data-name="패스 174" d="M62.633,59.262c.812,0,1.629.044,2.439.081.528.022,1.056.1,1.552.151l-.037,4.888H66.2c-.537,0-1.073-.007-1.61-.007-.4,0-.8,0-1.207.017-1.295.043-2.248.529-2.315,2.147-.041,1.166-.071,3.739-.072,3.874.067,0,1.347,0,2.635,0,.644,0,1.274,0,1.713,0h1.047c-.263,1.878-.5,3.679-.765,5.492H61l-.1,13.713H55.2l.1-13.735h-4.65l.042-5.46h4.672l0-.41c.009-1.1-.005-2.2.036-3.3a13.761,13.761,0,0,1,.178-2.093,6.214,6.214,0,0,1,2.491-4.078,7.152,7.152,0,0,1,4.1-1.273Q62.406,59.262,62.633,59.262Z" transform="translate(-50.659 -59.262)" fill="#fff"/>
      </g>
    </g>
    <ellipse id="타원_35" data-name="타원 35" cx="21.208" cy="21.208" rx="21.208" ry="21.208" transform="translate(2.032 1.575)" fill="none" stroke="#ccc" stroke-miterlimit="10" stroke-width="4" style="mix-blend-mode: multiply;isolation: isolate"/>
    <ellipse id="타원_36" data-name="타원 36" cx="21.208" cy="21.208" rx="21.208" ry="21.208" transform="translate(0 0)" fill="none" stroke="#fff" stroke-miterlimit="10" stroke-width="3"/>
  </g>
</svg>
