<svg xmlns="http://www.w3.org/2000/svg" width="47.948" height="47.492" viewBox="0 0 47.948 47.492">
  <g id="그룹_251" data-name="그룹 251" transform="translate(1.5 1.5)">
    <g id="그룹_250" data-name="그룹 250" transform="translate(7.517 7.041)">
      <path id="패스_175" data-name="패스 175" d="M217.035,71.41a4.479,4.479,0,0,0-.595.211c-.109.049-.21.11-.314.168a4.492,4.492,0,0,0-.484.3c-.1.074-.193.151-.286.232a4.608,4.608,0,0,0-.4.393c-.047.053-.107.095-.152.149s-.069.107-.107.157c-.071.1-.136.193-.2.295-.042.067-.095.127-.134.2s-.079.171-.119.256-.07.14-.1.214c-.017.042-.042.081-.058.124a4.563,4.563,0,0,0-.18.6l0,.014c0,.02-.005.042-.01.062a4.529,4.529,0,0,0-.085.568c-.007.09-.011.181-.013.272a4.412,4.412,0,0,0,.019.493c.01.1.033.2.049.3.01.063.018.127.031.19a4.579,4.579,0,0,0,.2.7c.007.017.017.033.024.05.016.042.038.08.056.12a4.344,4.344,0,0,0,.312.585c.033.054.065.107.1.158s.046.077.072.113a4.474,4.474,0,0,0,.426.5l0,0,3.688,3.7c-.19.016-.38.033-.574.033a6.8,6.8,0,0,1-4.841-2h0l5.224,5.244a6.8,6.8,0,0,0,4.841,2,7.071,7.071,0,0,0,.758-.043c.081-.01.16-.025.24-.037.167-.024.332-.05.494-.086.093-.02.184-.046.275-.07.147-.039.291-.08.434-.127.094-.031.186-.066.277-.1.136-.053.271-.108.4-.169.089-.041.178-.082.265-.127.131-.067.258-.139.383-.213.081-.048.162-.094.241-.145.132-.086.258-.178.383-.272.066-.049.134-.095.2-.147.159-.127.31-.264.457-.4.024-.024.052-.045.076-.069a7.048,7.048,0,0,0,.48-.526l.023-.026c.013-.016.023-.036.036-.052a6.982,6.982,0,0,0,.621-.912c.007-.013.017-.023.024-.036l.008-.016a6.97,6.97,0,0,0,.379-.811c.012-.032.031-.062.043-.094s.023-.082.036-.121a6.9,6.9,0,0,0,.21-.694c.009-.037.024-.072.033-.109,0-.011,0-.023.005-.035a6.907,6.907,0,0,0,.132-.875c0-.028.01-.055.012-.083.013-.16.019-.32.021-.482,0-.236-.009-.469-.029-.7v0a6.779,6.779,0,0,0-.139-.846c-.017-.078-.038-.155-.058-.232q-.083-.32-.2-.627c-.016-.044-.025-.091-.042-.134-.009-.021-.02-.039-.029-.06a6.744,6.744,0,0,0-.343-.735c-.024-.045-.053-.087-.079-.13q-.167-.29-.359-.56c-.023-.032-.041-.069-.064-.1s-.051-.056-.074-.086a6.819,6.819,0,0,0-.579-.674h0l-5.224-5.245a6.956,6.956,0,0,1,.581.676c.047.061.092.122.137.185.128.18.249.368.36.56.025.044.054.086.078.13a6.759,6.759,0,0,1,.344.735c.025.063.046.129.069.193.075.2.14.415.2.628.02.077.041.153.058.232a6.825,6.825,0,0,1,.139.847,6.955,6.955,0,0,1,.03.7c0,.181-.016.359-.031.537l-3.694-3.707a4.4,4.4,0,0,0-3.092-1.3h-.04a4.444,4.444,0,0,0-.96.11C217.229,71.341,217.135,71.38,217.035,71.41Zm2.888,6.86c.081-.108.17-.207.259-.307a4.466,4.466,0,0,1,.4-.392c.093-.082.187-.16.287-.233a4.5,4.5,0,0,1,.484-.3c.1-.057.2-.118.314-.168a4.467,4.467,0,0,1,.594-.211c.1-.029.194-.069.3-.091a4.5,4.5,0,0,1,.96-.11h.041a4.39,4.39,0,0,1,1.485.285c-.021.126-.029.254-.057.377-.01.049-.026.1-.038.145a6.732,6.732,0,0,1-.209.694c-.026.072-.052.143-.081.213a6.777,6.777,0,0,1-.379.812c-.01.017-.022.034-.031.051a7,7,0,0,1-.622.913c-.02.025-.037.052-.058.076a7.11,7.11,0,0,1-.48.528c-.023.023-.049.042-.072.065-.148.142-.3.28-.461.408-.063.051-.131.1-.2.146-.126.095-.252.187-.385.273-.078.05-.16.1-.239.144-.127.075-.254.147-.385.214-.087.044-.175.087-.264.127q-.2.09-.4.169c-.091.035-.183.069-.276.1-.142.048-.288.088-.434.127-.091.023-.181.049-.274.07-.128.028-.259.047-.39.068a4.3,4.3,0,0,1-.182-.613c-.013-.062-.021-.127-.031-.19a4.425,4.425,0,0,1-.069-.793,4.488,4.488,0,0,1,.1-.842c0-.019.005-.04.009-.059a4.5,4.5,0,0,1,.24-.735c.03-.073.067-.143.1-.214a4.269,4.269,0,0,1,.253-.452C219.787,78.463,219.852,78.364,219.923,78.269Z" transform="translate(-204.822 -62.231)" fill="#ccc" style="mix-blend-mode: multiply;isolation: isolate"/>
      <path id="패스_176" data-name="패스 176" d="M211.222,91.106a7.37,7.37,0,0,0,3.453,1.876,45.662,45.662,0,0,0,7.467.4,66.413,66.413,0,0,0,7.412-.3,8.856,8.856,0,0,0,1.247-.3c.124-.039.239-.088.359-.132a7.325,7.325,0,0,0,.767-.328c.124-.062.245-.129.363-.2a6.248,6.248,0,0,0,.652-.438c.1-.076.2-.148.3-.23a6.347,6.347,0,0,0,.693-.7c.029-.036.068-.062.1-.1.005-.006.009-.014.013-.019a6.906,6.906,0,0,0,.63-.93c.009-.016.02-.027.029-.042.055-.1.1-.213.147-.317.108-.216.217-.432.309-.666.013-.032.03-.058.042-.09q.163-.425.289-.891c.015-.056.029-.117.043-.183.02-.091.038-.2.056-.3,0-.018.007-.033.01-.052.029-.18.056-.383.081-.6.006-.055.012-.111.018-.168.022-.206.042-.424.061-.656,0-.026,0-.049.007-.075l0-.022c.02-.261.037-.539.054-.826.005-.09.01-.185.014-.277.011-.213.022-.43.031-.655q.007-.173.013-.349c.008-.218.015-.438.022-.663,0-.116.007-.231.01-.349.007-.269.012-.54.017-.815,0-.07,0-.139,0-.209.005-.347.01-.7.012-1.046,0-.1,0-.189,0-.284q0-.386,0-.769c0-.121,0-.24,0-.361,0-.236,0-.467,0-.7,0-.113,0-.224,0-.335,0-.262-.006-.517-.01-.768,0-.069,0-.14,0-.208-.005-.318-.011-.626-.018-.921,0-.058,0-.112,0-.169-.006-.232-.012-.455-.019-.668,0-.083-.005-.161-.008-.242q-.009-.265-.02-.5c0-.075-.006-.15-.01-.221-.007-.163-.015-.311-.023-.45,0-.046-.005-.1-.008-.14-.01-.165-.021-.311-.031-.431l0-.03a8.355,8.355,0,0,0-.2-1.166c-.029-.121-.073-.236-.108-.356-.056-.191-.1-.386-.173-.571-.025-.065-.061-.125-.088-.189-.043-.1-.092-.2-.14-.3a6.668,6.668,0,0,0-.4-.724c-.056-.088-.108-.177-.168-.263-.03-.042-.052-.088-.083-.13a6.976,6.976,0,0,0-.66-.766l-5.225-5.245a6.9,6.9,0,0,1,.744.9c.06.086.112.175.168.264a6.81,6.81,0,0,1,.4.724c.048.1.1.2.14.3a7.33,7.33,0,0,1,.26.76c.035.12.079.235.108.356a8.47,8.47,0,0,1,.2,1.166c.011.124.023.281.034.457,0,.049.006.109.01.162.008.132.015.271.022.423v.016l-3.8-3.813a4.773,4.773,0,0,0-2.711-1.3,61.551,61.551,0,0,0-6.717-.254c-2.676,0-5.339.073-6.51.2a6,6,0,0,0-.924.184c-.094.026-.18.062-.271.093a4.981,4.981,0,0,0-.56.221c-.1.046-.189.1-.282.151a4.322,4.322,0,0,0-.454.293c-.085.062-.168.126-.248.194a4.273,4.273,0,0,0-.393.39c-.046.051-.1.091-.146.144-.019.023-.032.052-.051.075-.076.1-.142.206-.212.312-.053.082-.116.156-.165.243-.016.029-.028.064-.043.095-.046.086-.084.179-.125.269s-.092.18-.129.277c-.018.048-.028.1-.045.151-.036.106-.068.216-.1.327-.023.084-.055.162-.075.249-.028.124-.052.25-.073.379-.023.15-.045.326-.066.523-.007.067-.013.147-.02.219-.011.123-.023.24-.034.377l0,.057c-.005.066-.01.14-.015.209-.011.167-.023.339-.032.522-.005.091-.01.184-.015.278-.009.176-.017.356-.025.544,0,.1-.009.206-.013.311-.007.2-.014.4-.021.611,0,.1-.006.188-.009.286-.009.3-.016.613-.022.928,0,.056,0,.114,0,.17q-.007.4-.012.8c0,.119,0,.237,0,.356,0,.21,0,.419,0,.629,0,.129,0,.258,0,.386,0,.213,0,.424,0,.635,0,.113,0,.225,0,.337q0,.415.006.817c0,.043,0,.088,0,.13q.005.467.014.908c0,.082,0,.157.005.237q.007.319.016.619c0,.094.005.184.008.274.006.177.012.346.019.51,0,.086.006.171.01.253.008.171.016.33.025.483,0,.056.006.118.01.172.011.192.024.369.038.523l0,.011c.016.178.033.33.052.45a5.628,5.628,0,0,0,.27,1.033c.015.041.018.09.034.13s.036.058.049.09a4.357,4.357,0,0,0,.49.9c.009.012.013.028.022.04a3.954,3.954,0,0,0,.382.443l3.83,3.846a13.514,13.514,0,0,1-2.125-.256,9.3,9.3,0,0,1-1.016-.324A6.907,6.907,0,0,1,206,85.862h0Zm19.42-21.527c0,.065.005.127.008.194,0,.089.006.178.009.271.007.2.012.4.017.613,0,.075,0,.146.006.223,0,.192.008.4.012.6l-2.372-2.38c.4.03.755.064,1.015.1A5.5,5.5,0,0,1,230.642,69.579Zm-5.425-.606c-.028.014-.049.039-.077.051s-.052.018-.077.028a1.617,1.617,0,0,1-.58.116,1.59,1.59,0,0,1-.748-.216C224.241,68.956,224.735,68.964,225.217,68.973Zm-2.6-.026c.331,0,.663,0,.991,0l4.968,4.987a1.558,1.558,0,0,0,1.709.357c.025-.01.051-.016.076-.027a1.634,1.634,0,0,0,.356-.208v.1c0,.244,0,.489,0,.735,0,.109,0,.218,0,.327,0,.346-.006.692-.011,1.035,0,.068,0,.134,0,.2,0,.278-.01.555-.016.828,0,.113-.007.223-.01.335q-.01.342-.022.673c0,.114-.009.228-.013.34-.01.227-.02.447-.031.663-.005.09-.009.185-.014.273-.017.295-.036.58-.056.847,0,.026,0,.049-.006.075-.019.232-.04.45-.062.656l-.018.167c-.025.218-.051.422-.081.6,0,.018-.006.033-.01.051-.031.185-.064.352-.1.488a9.417,9.417,0,0,1-.33.981c-.092.232-.2.447-.308.663-.06.12-.112.248-.177.362a6.915,6.915,0,0,1-.629.929c-.034.042-.075.075-.109.116a6.213,6.213,0,0,1-.694.7c-.095.082-.2.154-.3.229a6.4,6.4,0,0,1-.652.439c-.119.069-.239.136-.363.2a7.4,7.4,0,0,1-.767.327c-.12.044-.235.094-.359.132a8.885,8.885,0,0,1-1.247.3,66.423,66.423,0,0,1-7.413.3c-1.727,0-3.442-.036-4.833-.112l-.008-.012c-.029-.072-.056-.146-.082-.22a5.55,5.55,0,0,1-.271-1.034c-.018-.12-.036-.272-.052-.449-.014-.158-.028-.337-.04-.534,0-.056-.006-.118-.01-.176-.009-.15-.017-.307-.025-.474,0-.085-.007-.174-.01-.264-.007-.16-.013-.326-.018-.5,0-.1-.006-.191-.009-.289-.006-.187-.01-.382-.015-.579,0-.093,0-.183-.006-.278-.005-.287-.01-.583-.014-.886,0-.065,0-.132,0-.2,0-.251,0-.5-.005-.761,0-.109,0-.22,0-.33v-.658c0-.117,0-.233,0-.35q0-.34.005-.679,0-.156,0-.312.005-.414.013-.82c0-.054,0-.108,0-.16.006-.318.014-.631.023-.937,0-.084.005-.165.008-.247.006-.222.014-.441.022-.652,0-.1.008-.194.012-.29q.012-.287.025-.558c.005-.092.01-.184.015-.273.01-.188.022-.365.034-.537,0-.063.009-.131.013-.193.012-.161.025-.3.039-.447.006-.069.012-.146.018-.21.021-.2.043-.373.066-.522a5.774,5.774,0,0,1,.147-.628c.031-.111.062-.222.1-.328.051-.148.111-.289.173-.428.041-.09.08-.183.125-.269.063-.119.137-.227.209-.337s.134-.213.212-.311c.061-.078.131-.147.2-.22a4.153,4.153,0,0,1,.392-.389c.08-.069.164-.132.249-.2a4.62,4.62,0,0,1,.454-.293c.092-.052.184-.1.281-.15a4.983,4.983,0,0,1,.56-.221c.091-.03.177-.067.271-.094a5.993,5.993,0,0,1,.923-.183C217.281,69.02,219.944,68.947,222.619,68.947Z" transform="translate(-203.844 -61.27)" fill="#ccc" style="mix-blend-mode: multiply;isolation: isolate"/>
      <g id="그룹_247" data-name="그룹 247" transform="translate(19.044 4.672)">
        <path id="패스_177" data-name="패스 177" d="M227.084,66.309h.02a1.6,1.6,0,0,1,1.6,1.618,1.629,1.629,0,0,1-1.631,1.608,1.613,1.613,0,0,1,.016-3.226Z" transform="translate(-225.474 -66.309)" fill="#fff"/>
      </g>
      <g id="그룹_248" data-name="그룹 248">
        <path id="패스_178" data-name="패스 178" d="M230.226,67.665c.2,2.114.329,12.106-.294,14.448A6.876,6.876,0,0,1,224,87.486a66.422,66.422,0,0,1-7.413.3,45.641,45.641,0,0,1-7.466-.4,6.739,6.739,0,0,1-5.35-5.859c-.361-2.266-.4-12.8.255-15.084a6.852,6.852,0,0,1,5.855-5.222,52.361,52.361,0,0,1,6.733-.3c2.508,0,5.038.069,6.561.152a7.4,7.4,0,0,1,4.9,2.007A7.071,7.071,0,0,1,230.226,67.665Zm-2.584,13.423a96.324,96.324,0,0,0,.166-13.2,4.519,4.519,0,0,0-4.025-4.283,61.552,61.552,0,0,0-6.717-.254c-2.676,0-5.339.073-6.51.2a4.6,4.6,0,0,0-4.293,4.046,91.6,91.6,0,0,0-.093,13.563,4.356,4.356,0,0,0,3.316,3.8,41.587,41.587,0,0,0,7.226.4c2.818,0,5.586-.088,6.625-.2a4.587,4.587,0,0,0,4.3-4.067" transform="translate(-203.514 -60.921)" fill="#fff"/>
      </g>
      <g id="그룹_249" data-name="그룹 249" transform="translate(6.548 6.55)">
        <path id="패스_179" data-name="패스 179" d="M218.012,68.474a6.827,6.827,0,0,1,6.831,6.894,6.954,6.954,0,0,1-6.946,6.884,6.821,6.821,0,0,1-6.832-6.894A6.941,6.941,0,0,1,218.012,68.474Zm-.1,11.34A4.5,4.5,0,0,0,222.4,75.4a4.41,4.41,0,0,0-4.379-4.5h-.04a4.5,4.5,0,0,0-4.493,4.413,4.417,4.417,0,0,0,4.379,4.5h.04" transform="translate(-211.065 -68.474)" fill="#fff"/>
      </g>
    </g>
    <ellipse id="타원_37" data-name="타원 37" cx="21.208" cy="21.208" rx="21.208" ry="21.208" transform="translate(2.032 1.575)" fill="none" stroke="#ccc" stroke-miterlimit="10" stroke-width="4" style="mix-blend-mode: multiply;isolation: isolate"/>
    <ellipse id="타원_38" data-name="타원 38" cx="21.208" cy="21.208" rx="21.208" ry="21.208" transform="translate(0 0)" fill="none" stroke="#fff" stroke-miterlimit="10" stroke-width="3"/>
  </g>
</svg>
