<svg xmlns="http://www.w3.org/2000/svg" width="47.948" height="47.492" viewBox="0 0 47.948 47.492">
  <g id="그룹_257" data-name="그룹 257" transform="translate(1.5 1.5)">
    <g id="그룹_256" data-name="그룹 256" transform="translate(7.461 10.812)">
      <path id="패스_183" data-name="패스 183" d="M228.914,229.842,223.69,224.6c-2.88-1.511-5.729-3-8.587-4.5-.023,3-.045,5.966-.069,8.976l5.225,5.245c.023-3.011.045-5.978.069-8.977h0C223.186,226.843,226.034,228.331,228.914,229.842Z" transform="translate(-204.599 -215.159)" fill="#ccc" style="mix-blend-mode: multiply;isolation: isolate"/>
      <path id="패스_184" data-name="패스 184" d="M236.186,230.825c.018-.555.025-1.116.024-1.675,0-.1,0-.2,0-.3q-.005-.821-.037-1.61c0-.106-.01-.206-.015-.31-.025-.534-.057-1.054-.1-1.538l0-.021c-.017-.189-.039-.363-.059-.543-.013-.118-.024-.243-.039-.356-.025-.2-.055-.377-.084-.559-.014-.087-.025-.184-.041-.267-.032-.182-.069-.342-.106-.5-.015-.066-.028-.143-.043-.2a5.068,5.068,0,0,0-.173-.566l-.014-.038c-.012-.03-.033-.053-.045-.083a3.389,3.389,0,0,0-.348-.638c-.018-.027-.028-.062-.047-.088a3.113,3.113,0,0,0-.3-.343l-5.224-5.244a3.187,3.187,0,0,1,.343.43,3.454,3.454,0,0,1,.348.64c.017.042.042.076.059.121a5.178,5.178,0,0,1,.173.565c.019.076.036.172.054.255.033.147.066.288.1.452.016.093.029.2.045.3.028.173.055.342.08.529.015.113.025.238.039.356.021.186.042.367.061.563.043.486.076,1.008.1,1.542.005.1.01.2.014.3.022.526.035,1.065.038,1.612,0,.1,0,.2,0,.3,0,.555-.007,1.113-.025,1.664v.059c-.019.56-.051,1.107-.089,1.64-.01.132-.018.264-.029.394s-.021.239-.031.357q-.03.308-.063.6c-.012.113-.025.225-.039.335-.025.2-.053.392-.082.581-.014.092-.027.187-.042.277-.042.252-.088.493-.138.717,0,.014-.005.03-.009.044-.05.226-.106.43-.164.621-.016.053-.032.1-.049.152a4.443,4.443,0,0,1-.18.473,3.3,3.3,0,0,1-.2.336c-.047.073-.094.146-.145.213s-.094.111-.141.165a3.247,3.247,0,0,1-.336.329c-.048.041-.095.084-.146.122a4.182,4.182,0,0,1-.545.356c-.937.483-6.369.712-11.691.712-4.9,0-9.7-.193-10.829-.561a3.328,3.328,0,0,1-1.342-.806l5.224,5.244a3.351,3.351,0,0,0,1.342.806c1.125.367,5.93.56,10.829.56,5.322,0,10.754-.229,11.691-.712a4.255,4.255,0,0,0,.546-.356c.05-.038.1-.081.145-.121a3.177,3.177,0,0,0,.336-.33c.027-.031.062-.055.088-.087s.034-.053.053-.077c.052-.068.1-.141.146-.215.032-.05.071-.1.1-.149s.066-.122.1-.186c.041-.087.081-.181.119-.283.021-.058.041-.127.061-.189s.034-.1.05-.154c.057-.189.113-.39.162-.614l0-.005c0-.014.005-.03.009-.044.049-.224.095-.465.137-.718.015-.089.028-.185.042-.277.029-.188.056-.38.082-.58.014-.111.027-.224.04-.338.023-.2.043-.4.062-.6.011-.119.022-.238.032-.359.005-.069.013-.135.018-.206s.006-.127.01-.188c.038-.533.07-1.081.089-1.642Z" transform="translate(-203.223 -214.606)" fill="#ccc" style="mix-blend-mode: multiply;isolation: isolate"/>
      <g id="그룹_255" data-name="그룹 255">
        <path id="패스_185" data-name="패스 185" d="M230.064,216.926c.995,2.622.954,12.17-.241,14.7a3.347,3.347,0,0,1-1.512,1.521c-.937.483-6.369.712-11.691.712-4.9,0-9.7-.193-10.829-.561a3.217,3.217,0,0,1-2.121-2.072c-.9-2.536-1.1-13.153.7-15.245a3.469,3.469,0,0,1,2.329-1.231c2.136-.231,6.254-.343,10.316-.343,5.058,0,10.028.175,10.971.516A3.274,3.274,0,0,1,230.064,216.926Zm-16.628,11.393c2.882-1.5,5.752-2.978,8.656-4.477-2.88-1.511-5.729-3-8.587-4.5-.023,3-.045,5.966-.069,8.976" transform="translate(-203.001 -214.402)" fill="#fff"/>
      </g>
    </g>
    <ellipse id="타원_41" data-name="타원 41" cx="21.208" cy="21.208" rx="21.208" ry="21.208" transform="translate(2.032 1.575)" fill="none" stroke="#ccc" stroke-miterlimit="10" stroke-width="4" style="mix-blend-mode: multiply;isolation: isolate"/>
    <ellipse id="타원_42" data-name="타원 42" cx="21.208" cy="21.208" rx="21.208" ry="21.208" transform="translate(0 0)" fill="none" stroke="#fff" stroke-miterlimit="10" stroke-width="3"/>
  </g>
</svg>
