<svg xmlns="http://www.w3.org/2000/svg" width="47.37" height="43.751" viewBox="0 0 47.37 43.751">
  <g id="그룹_191" data-name="그룹 191" transform="translate(0 0)">
    <path id="패스_131" data-name="패스 131" d="M1034.363,282.489c-.828-1.145-2.166-1.281-3.495-1.289-2.1-.014-4.2-.005-6.295-.008-3.9,0-7.8.033-11.692.054q-2.849.015-5.7.02c-1.378,0-3.133-.274-4.414.365-1.511.754-1.4,2.4-1.43,3.833q-.055,3.17-.02,6.338a98.134,98.134,0,0,0,.578,12.705,1.53,1.53,0,0,0,1.261,2.179,116.7,116.7,0,0,0,23.663-.435q2.522-.3,5.041-.642c1.6-.217,2.456-.485,2.551-2.156.209-3.722.328-7.46.432-11.186q.081-2.869.16-5.737C1035.045,285.182,1035.206,283.656,1034.363,282.489Z" transform="translate(-998.186 -265.078)" fill="#d4d4d4"/>
    <path id="패스_132" data-name="패스 132" d="M1036.6,276.718a73.588,73.588,0,0,1-10.459-6.867q-2.222-1.831-4.334-3.789c-1.037-.96-2.229-2.563-3.809-2.481-1.562.082-3.185,1.647-4.446,2.467l-5.226,3.4c-3.568,2.324-6.23,4.669-9.8,6.993-1.456.948-.153,3.335,1.315,2.377l.207-.135c11.983-.325,23.9.017,35.882.284A1.226,1.226,0,0,0,1036.6,276.718Z" transform="translate(-997.896 -263.578)" fill="#97a8b2"/>
    <path id="패스_133" data-name="패스 133" d="M1025.989,304.441a11.777,11.777,0,0,1-2.178-4.577,9.563,9.563,0,0,1-.45-3.345,6.445,6.445,0,0,1,6.086-5.547,7.981,7.981,0,0,1,7.207,4.516c.324-2.259,2.723-3.752,5-3.833a4.442,4.442,0,0,1,2.712.678,5.907,5.907,0,0,1,1.664,2.148c.881,1.638,1.679,3.482,1.306,5.3a7.721,7.721,0,0,1-2.551,3.857,28.546,28.546,0,0,1-4.547,3.485c-1.278.79-3.773,2.6-5.329,2.53-1.255-.054-3.227-1.593-4.4-2.159A13.2,13.2,0,0,1,1025.989,304.441Z" transform="translate(-1000.063 -265.911)" fill="#f17b7d"/>
  </g>
</svg>
