<svg xmlns="http://www.w3.org/2000/svg" width="46.95" height="39.21" viewBox="0 0 46.95 39.21">
  <g id="그룹_175" data-name="그룹 175" transform="translate(0 0)">
    <path id="패스_102" data-name="패스 102" d="M519.515,379.455s-10.694-2.137-13.162-11.341,3.177-20.454,17.612-21.477,22.873,4.568,27.731,13.278-8.35,17.075-15.936,19.54l-1.705,6.272-2.3-5.218S527.73,380.825,519.515,379.455Z" transform="translate(-505.791 -346.517)" fill="#ff8ac4"/>
    <path id="패스_103" data-name="패스 103" d="M533.321,356.607s0-.682-1.206-.682-2.732,0-2.746.682c0,0-.134,5.751,0,7.026l0,.043c-1.3.022-3.35.008-4.946-.011-.029-1.178-.046-2.084-.033-2.452.057-1.592.4-5.33-.057-5.422s-3.8-.476-3.809,0c0,0-.228,7.607,0,11.319s-.284,7.408.341,7.578a10.436,10.436,0,0,0,3.525,0c.278-.138.2-4.53.1-8.3,1.594.007,3.64-.018,4.994-.038a19.074,19.074,0,0,1-.181,3.388,21.6,21.6,0,0,0,0,4.321s-.007.455.931.455h2.21s.67.4.536-1.194A90.045,90.045,0,0,1,533,363.146C533.254,361.441,533.321,356.607,533.321,356.607Z" transform="translate(-507.39 -347.504)" fill="#fff"/>
    <path id="패스_104" data-name="패스 104" d="M540.132,361.332s-.763.057-.826.682a48.912,48.912,0,0,0,0,6.31,44.557,44.557,0,0,1-.1,5.97s-.318.455.463.512,2.559.455,2.623-.568.254-10.177,0-11.145.508-1.762-.827-1.762Z" transform="translate(-509.434 -348.135)" fill="#fff"/>
    <path id="패스_105" data-name="패스 105" d="M540.008,356.632s-.993.917-.5,1.767,1.418,1.441,2.41.655a1.394,1.394,0,0,0-.5-2.422A2.655,2.655,0,0,0,540.008,356.632Z" transform="translate(-509.459 -347.612)" fill="#fff"/>
  </g>
</svg>
