<svg xmlns="http://www.w3.org/2000/svg" width="36.883" height="52.736" viewBox="0 0 36.883 52.736">
  <path id="패스_86" data-name="패스 86" d="M642.369,30.324c-5.04-4.847-10.626-6.018-18.679-3.919-11.12,2.9-13.673,14.093-11.337,23.269,1.017,4,2.891,7.322,4.874,10.838.5.895,1.012,1.8,1.509,2.714a63,63,0,0,0,4.216,6.493c.447.629.895,1.258,1.34,1.9.889,1.282,1.983,3.04,2.948,4.593.37.593.722,1.163,1.046,1.673a.552.552,0,0,0,.76.172l.024-.016a.538.538,0,0,0,.236-.125c3.155-2.826,6.07-7.154,8.2-10.315l.655-.97c.662-.975,1.382-1.983,2.123-3.022,3.783-5.3,8.07-11.306,8.156-17.588C648.527,39.565,646.485,34.283,642.369,30.324ZM623.481,50.618a8.438,8.438,0,0,1-3.706-6.151,10.5,10.5,0,0,1,2.8-7.963,9.614,9.614,0,0,1,7.041-3.444.632.632,0,0,0,.1,0c5.291-.311,8.941,4.937,9.692,10.035.569,3.874-.458,8.4-5.053,9.5A14.537,14.537,0,0,1,623.481,50.618Z" transform="translate(-611.56 -25.408)" fill="#e25f62"/>
</svg>
