<svg xmlns="http://www.w3.org/2000/svg" width="40.984" height="42.397" viewBox="0 0 40.984 42.397">
  <g id="그룹_174" data-name="그룹 174" transform="translate(0 0)">
    <path id="패스_87" data-name="패스 87" d="M1008.863,468.286s3.062-3.859,6.162-3.378,4.433,1.009,6.5,4.091,2.595-2.3,1.73-4.091-4.832-4.976-7.874-4.976-8.3,2.339-8.566,4.483S1005.559,471.065,1008.863,468.286Z" transform="translate(-994.874 -448.709)" fill="#e0cdb3"/>
    <path id="패스_88" data-name="패스 88" d="M993.463,471.944s-.232,6.708,2.214,11.426,8.359,7.267,12.559,8.063a36.006,36.006,0,0,0,15.641-.625c4.492-1.11,5.937-3.795,8.155-6.766s2.6-9.848,2.33-13.208-6.505,1.055-7.926,4.718-9.609,6.826-13.76,6.1-12.281-5.05-13.3-9.489S993.411,466.45,993.463,471.944Z" transform="translate(-993.453 -449.624)" fill="#e0cdb3"/>
    <g id="그룹_171" data-name="그룹 171" transform="translate(0 0)">
      <path id="패스_89" data-name="패스 89" d="M1028.766,460.219c-3.058,0-2.614-2.22-2.614-2.22a4.123,4.123,0,0,1-3.242-1.332,8.834,8.834,0,0,1-1.023-2.72c-.909.055-1.535-.444-2.7-1.776s-.891-4.192-.891-4.192a24.961,24.961,0,0,0-5.737-.6s-10.121-1.113-14.9,7.026-6.823,20.041,1.137,27.786,24.9,6.216,29.452,2,8.074-11.877,4.89-23.642A12.5,12.5,0,0,1,1028.766,460.219Zm-13.838,13.539c-6.739.149-8.526-4.471-7.152-8.046s6.105-3.646,6.105-3.646C1022.43,463.038,1021.667,473.608,1014.928,473.758Z" transform="translate(-993.452 -447.333)" fill="#7f6f63"/>
    </g>
    <g id="그룹_172" data-name="그룹 172" transform="translate(0.936 0.916)">
      <path id="패스_90" data-name="패스 90" d="M1028.881,460.331c-3.058,0-2.615-2.22-2.615-2.22a4.123,4.123,0,0,1-3.241-1.332,8.833,8.833,0,0,1-1.023-2.72c-.91.055-1.535-.444-2.7-1.776a5.383,5.383,0,0,1-.915-3.217h0a29.952,29.952,0,0,1-6.679-.556c-3.5-.716-10.974,1.221-12.167,4.218s-3.225,4.051-4.476,9.212a16.171,16.171,0,0,0,1.993,13.15c2.815,4.092,3.987,5.44,4.35,7.422s6.861,4.81,10.528,3.681,6.368,1.471,11.315.055a14.22,14.22,0,0,0,9.779-9.879c1.024-4.32.6-6.881.853-10.211a10.093,10.093,0,0,0-.967-5.444h0A13.293,13.293,0,0,1,1028.881,460.331Zm-13.838,13.539c-6.739.149-8.526-4.471-7.152-8.046s6.105-3.646,6.105-3.646C1022.545,463.151,1021.781,473.721,1015.043,473.87Z" transform="translate(-994.503 -448.362)" fill="#665346"/>
    </g>
    <path id="패스_91" data-name="패스 91" d="M1006.379,454.176s-.341,0-.341.222a5.9,5.9,0,0,0,.171,1.739s.511.037.587-.148A9.982,9.982,0,0,0,1006.379,454.176Z" transform="translate(-994.827 -448.081)" fill="#44372e"/>
    <path id="패스_92" data-name="패스 92" d="M1027.088,461.175s-.341,0-.341.223a5.9,5.9,0,0,0,.171,1.739s.511.036.587-.149A10,10,0,0,0,1027.088,461.175Z" transform="translate(-997.088 -448.845)" fill="#44372e"/>
    <path id="패스_93" data-name="패스 93" d="M1011.687,461.107a17.911,17.911,0,0,0-1.554,1.628s-.19.185,0,.333.3.185.568,0,.986-1,1.365-1.3S1011.687,461.107,1011.687,461.107Z" transform="translate(-995.265 -448.837)" fill="#44372e"/>
    <path id="패스_94" data-name="패스 94" d="M1002.936,468.013a12.721,12.721,0,0,0-.871,2.294,1.208,1.208,0,0,0,.436.259c.247.074.891-2.553.891-2.553S1003.061,467.746,1002.936,468.013Z" transform="translate(-994.393 -449.579)" fill="#44372e"/>
    <path id="패스_95" data-name="패스 95" d="M1009.78,484.012s.136-.437.027-.545a4.546,4.546,0,0,0-1.768,0,.781.781,0,0,0,.078.521S1009.344,483.714,1009.78,484.012Z" transform="translate(-995.044 -451.27)" fill="#44372e"/>
    <path id="패스_96" data-name="패스 96" d="M1029.763,482.738s-1.062.592-1.137,1.443a1.078,1.078,0,0,0,.379.333,4.132,4.132,0,0,0,.341-.518,8.778,8.778,0,0,1,.8-1Z" transform="translate(-997.294 -451.2)" fill="#44372e"/>
    <path id="패스_97" data-name="패스 97" d="M995.713,474.669s.261,1.195,1.07,1.529a1.1,1.1,0,0,0,.439-.259,4.174,4.174,0,0,0-.4-.485,8.988,8.988,0,0,1-.737-1.066Z" transform="translate(-993.699 -450.288)" fill="#44372e"/>
    <path id="패스_98" data-name="패스 98" d="M1018.514,481.681a12.3,12.3,0,0,0,0,2.131s.477.3.523,0a18.9,18.9,0,0,1,0-2.553S1018.555,480.954,1018.514,481.681Z" transform="translate(-996.184 -451.032)" fill="#44372e"/>
    <path id="패스_99" data-name="패스 99" d="M1028.515,474.7l-.4,1a.575.575,0,0,1-.458.027c-.247-.094.421-1.269.545-1.381S1028.515,474.7,1028.515,474.7Z" transform="translate(-997.183 -450.282)" fill="#44372e"/>
    <path id="패스_100" data-name="패스 100" d="M1019.139,453.505a5.188,5.188,0,0,0,1.261,1.781s.286.141.313-.1-.985-1.323-1.239-1.977S1019.047,453.311,1019.139,453.505Z" transform="translate(-996.255 -447.946)" fill="#44372e"/>
    <g id="그룹_173" data-name="그룹 173" transform="translate(36.331 13.259)">
      <path id="패스_101" data-name="패스 101" d="M1034.323,463.387s-.19.185,0,.333.3.184.568,0,.985-1,1.365-1.3a.245.245,0,0,0,.1-.154c-.323,0-.647-.023-.957-.053A10.109,10.109,0,0,0,1034.323,463.387Z" transform="translate(-1034.239 -462.218)" fill="#44372e"/>
    </g>
  </g>
</svg>
