<svg xmlns="http://www.w3.org/2000/svg" width="42.032" height="46.505" viewBox="0 0 42.032 46.505">
  <g id="그룹_170" data-name="그룹 170" transform="translate(0 0)">
    <path id="패스_84" data-name="패스 84" d="M722.9,210.8c4.314,3.657,10.509,3.967,13.031,2.339,2.041-1.318,9.141-8.628,4.368-18.058-1.351-1.331-8.414-7.769-14.813-3.668a12.685,12.685,0,0,0-5.621,10.045C719.625,205.072,721.043,209.221,722.9,210.8Z" transform="translate(-704.684 -185.33)" fill="#edf4f9"/>
    <path id="패스_85" data-name="패스 85" d="M744.914,192.725a2.314,2.314,0,0,0-.372-.517c-2.411-2.554-7.155-6-12.453-6.608a12.862,12.862,0,0,0-8.6,1.98,17.393,17.393,0,0,0-7.8,13.735,18.8,18.8,0,0,0,3.1,11.509s-3.612,4.379-4.833,5.824c-.986,1.165-3.983,4.623-3.983,4.623s-4.387,4.7-4.6,5.124a1.841,1.841,0,0,0,.263,1.739c.422.739,1.9,2.109,2.848,1.846s4.8-4.645,5.469-5.442l3.385-4.442,5.174-5.873c5.582,3.664,12.437,3.758,16.57,1.087C743.668,214.346,751.127,204.438,744.914,192.725ZM736.5,213.312c-2.522,1.628-8.717,1.317-13.031-2.339-1.857-1.575-3.275-5.724-3.034-9.341a12.685,12.685,0,0,1,5.621-10.045c6.4-4.1,13.461,2.337,14.813,3.668C745.638,204.684,738.539,211.994,736.5,213.312Z" transform="translate(-705.25 -185.507)" fill="#666"/>
  </g>
</svg>
