<svg xmlns="http://www.w3.org/2000/svg" width="41.5" height="45.458" viewBox="0 0 41.5 45.458">
  <g id="그룹_178" data-name="그룹 178" transform="translate(0 0)">
    <path id="패스_115" data-name="패스 115" d="M628.183,266.775c-1.819-3.806-6.218-.97-8.723.449-2.664,1.508-6.482,4.4-4.517,7.956.812,1.469,2.438,1.885,3.9,2.424a46.321,46.321,0,0,1,7.549,3.46.772.772,0,0,0,1.15-.819,1.036,1.036,0,0,0,.254-.485,56.617,56.617,0,0,0,.875-7.36C628.749,270.632,628.978,268.439,628.183,266.775Zm-6.76,4.15c.967-.631,1.635-1.648,2.345-.01.516,1.188.263,3.307.019,5.035-.184-.109-.355-.234-.543-.337-.7-.382-1.417-.715-2.142-1.039q-.574-.246-1.146-.5-1.237-.227-.377-1.264C619.818,271.72,620.577,271.478,621.423,270.926Z" transform="translate(-607.995 -264.87)" fill="#f9ce77"/>
    <path id="패스_116" data-name="패스 116" d="M638.216,271.312c-4.263-3.677-9.833,4.734-12.073,7.407-.559.667.315,1.606.934,1.063a1.944,1.944,0,0,0,1.082,2.031c1.009.518,2.112.021,3.1-.263a32.764,32.764,0,0,1,5.558-1.134c1.9-.209,4.133-.533,4.3-2.893C641.24,275.658,639.618,272.521,638.216,271.312Zm-3.338,3.947c1.1-.545.287-.38.759.074a3.4,3.4,0,0,1,.521.753c-1.245.223-2.471.5-3.685.832A12.685,12.685,0,0,1,634.878,275.259Z" transform="translate(-609.258 -265.474)" fill="#f9ce77"/>
    <path id="패스_117" data-name="패스 117" d="M607.249,287.24a5.613,5.613,0,0,1,.313-2.831c.925-1.892,3.484-2.118,5.59-2.084l27.431.451a7.64,7.64,0,0,1,4.525,1.031c1.846,1.376,2.05,4.016,2.089,6.318q.1,5.653.193,11.306c.045,2.58-.029,5.466-1.859,7.285-1.734,1.725-4.439,1.876-6.884,1.922l-15.756.3-7.385.141c-1.664.031-5.077.778-6.549-.2-2.021-1.343-.655-6.457-.774-8.576C607.9,297.281,607.56,292.261,607.249,287.24Z" transform="translate(-607.21 -266.776)" fill="#fbabcb"/>
    <path id="패스_118" data-name="패스 118" d="M624.551,281.442a13.47,13.47,0,0,1,4.98.523,1.973,1.973,0,0,1,1.043.59,2.141,2.141,0,0,1,.3,1.33l.027,21.135a42.807,42.807,0,0,1-.266,5.922,1.519,1.519,0,0,1-.354.921,1.59,1.59,0,0,1-1.276.245c-2.749-.264-4.339.1-4.414-2.912-.077-3.136.375-6.354.444-9.5C625.064,298.165,624.632,281.429,624.551,281.442Z" transform="translate(-609.104 -266.675)" fill="#f9ce77"/>
    <path id="패스_119" data-name="패스 119" d="M648.648,295.087a10.164,10.164,0,0,1-.706,4.979,1.934,1.934,0,0,1-.8,1.044,3.736,3.736,0,0,1-1.8.3l-28.537.027a78.122,78.122,0,0,1-8-.266,2.512,2.512,0,0,1-1.244-.355,1.271,1.271,0,0,1-.331-1.276c.355-2.749-.13-4.34,3.932-4.414,4.235-.077,8.579.375,12.826.443C626.07,295.6,648.666,295.167,648.648,295.087Z" transform="translate(-607.21 -268.171)" fill="#f9ce77"/>
  </g>
</svg>
