<svg xmlns="http://www.w3.org/2000/svg" width="36.257" height="45.814" viewBox="0 0 36.257 45.814">
  <g id="그룹_167" data-name="그룹 167" transform="translate(0 0)">
    <g id="그룹_166" data-name="그룹 166" transform="translate(4.31 0)">
      <path id="패스_65" data-name="패스 65" d="M420.877,543.456l-2.039.422,2.039-.42v0l-2.039.422,2.039-.42-1.952.4,1.952-.4h0l-1.952.4,1.952-.4-.084.017.084-.017h0l-.084.017.084-.017-.385.079.387-.079h0l-.385.079.387-.079c0-.005-.093-.457-.183-1.2a24.915,24.915,0,0,1-.179-2.954,19.46,19.46,0,0,1,.362-3.857,9.216,9.216,0,0,1,.99-2.624,10.034,10.034,0,0,1,1.3-1.816,9.334,9.334,0,0,1,1.226-1.139,8.048,8.048,0,0,1,2.15-1.193,7.2,7.2,0,0,1,2.47-.433c.082,0,.163,0,.245,0h0a23.166,23.166,0,0,1,3.666.39,14.15,14.15,0,0,1,2.321.646,9.053,9.053,0,0,1,1.409.67,6.5,6.5,0,0,1,.845.591,4.92,4.92,0,0,1,.933,1.018,4.456,4.456,0,0,1,.584,1.24,22.519,22.519,0,0,1,.883,5.247c.048.808.069,1.6.093,2.4s.054,1.6.13,2.426a2.193,2.193,0,0,0,4.367-.4c-.061-.664-.089-1.38-.113-2.159-.036-1.168-.062-2.476-.211-3.936a25.8,25.8,0,0,0-.946-4.828,8.844,8.844,0,0,0-1.94-3.445,10.336,10.336,0,0,0-2.442-1.958,13.652,13.652,0,0,0-2.137-1,19.172,19.172,0,0,0-3.525-.919,28.37,28.37,0,0,0-3.773-.363h0q-.2-.006-.39-.006a11.58,11.58,0,0,0-2.414.253,11.9,11.9,0,0,0-3.732,1.494,13.172,13.172,0,0,0-2.3,1.783,14.291,14.291,0,0,0-2.562,3.359,13.594,13.594,0,0,0-1.426,3.825,23.8,23.8,0,0,0-.45,4.734,29.246,29.246,0,0,0,.219,3.557c.11.89.222,1.437.232,1.485a2.193,2.193,0,0,0,4.3-.888Z" transform="translate(-416.13 -523.855)" fill="#5e625e"/>
    </g>
    <path id="패스_66" data-name="패스 66" d="M419.363,541.978s9.321-.174,13.828-.3,11.21.187,13.281.363,1.462,2.855,1.462,4.317.046,8.9.083,11.212.742,9.642-.57,10.353c-3.594,1.949-20.772.561-26.256.768s-8.894.328-9.015-2.23a126.811,126.811,0,0,1,0-13.645c.365-3.534-1.1-11.009,3.046-10.922Z" transform="translate(-411.982 -523.16)" fill="#6d9dbf"/>
    <path id="패스_67" data-name="패스 67" d="M428.413,555.494a1.6,1.6,0,0,1,0-2.776c1.884-1.487,4.144-.3,3.856.4s.051,1.388-1.159,2.38a9.13,9.13,0,0,0,.525,3.2s.1.467-1.041.367a15.144,15.144,0,0,1-3.019-.367C427.025,558.469,428.413,555.494,428.413,555.494Z" transform="translate(-411.377 -522.755)" fill="#fff"/>
  </g>
</svg>
