<svg xmlns="http://www.w3.org/2000/svg" width="30.289" height="43.308" viewBox="0 0 30.289 43.308">
  <path id="패스_86" data-name="패스 86" d="M636.861,29.445c-4.139-3.98-8.726-4.942-15.339-3.218-9.132,2.379-11.228,11.573-9.31,19.109a35.994,35.994,0,0,0,4,8.9c.414.735.831,1.474,1.239,2.229a51.737,51.737,0,0,0,3.462,5.332c.367.517.735,1.033,1.1,1.562.73,1.053,1.628,2.5,2.421,3.772.3.487.593.955.859,1.374a.453.453,0,0,0,.625.142l.02-.013a.441.441,0,0,0,.194-.1,47.15,47.15,0,0,0,6.734-8.47l.538-.8c.543-.8,1.135-1.628,1.743-2.482,3.107-4.352,6.627-9.285,6.7-14.443C641.918,37.034,640.241,32.7,636.861,29.445ZM621.35,46.111a6.93,6.93,0,0,1-3.044-5.052,8.624,8.624,0,0,1,2.3-6.539,7.9,7.9,0,0,1,5.782-2.828.52.52,0,0,0,.084,0c4.345-.256,7.343,4.054,7.959,8.241.468,3.181-.376,6.9-4.149,7.8A11.938,11.938,0,0,1,621.35,46.111Z" transform="translate(-611.561 -25.408)" fill="#e25f62"/>
</svg>
